<svg width="19" height="19" viewBox="0 0 19 19" fill="none" xmlns="http://www.w3.org/2000/svg">
<path fill-rule="evenodd" clip-rule="evenodd" d="M0.712891 9.45677C0.712891 4.47436 4.74756 0.430664 9.73899 0.430664C14.7214 0.430664 18.7651 4.47436 18.7651 9.45677C18.7651 14.4482 14.7214 18.4829 9.73899 18.4829C4.74756 18.4829 0.712891 14.4482 0.712891 9.45677ZM11.7511 11.1083L13.2133 6.48699C13.3126 6.17107 13.0237 5.87321 12.7078 5.9725L8.08647 7.41667C7.89692 7.47986 7.74348 7.62427 7.68932 7.81382L6.24515 12.4442C6.14586 12.7511 6.44372 13.049 6.75061 12.9497L11.3539 11.5055C11.5435 11.4513 11.6969 11.2979 11.7511 11.1083Z" fill="black"/>
</svg>
